<svg id="Layer_1" data-name="Layer 1" xmlns="http://www.w3.org/2000/svg" viewBox="0 0 292 103.8"><defs><style>.cls-1{fill:#aad406;}.cls-2{fill:#cce56a;}.cls-3{fill:#b3b3b3;}</style></defs><title>logo_black</title><path class="cls-1" d="M33.4,103.4,0,84.12V45.55L33.4,26.27l14.7,8.34V10.15L66.79,21V84.12Zm14.7-30.33V56.39L33.64,48,19.2,56.39V73.07l14.45,8.34Z" transform="translate(0 0.4)"/><polygon class="cls-2" points="19.2 56.79 33.65 48.45 48.09 56.79 48.09 35.01 33.4 26.67 0.05 45.93 19.2 56.98 19.2 56.79"/><rect x="47.97" width="0.25" height="83.96"/><rect x="57.2" y="-5.86" width="0.25" height="42.7" transform="translate(15.24 57.79) rotate(-60)"/><rect x="40.81" y="32.93" width="0.25" height="38.7" transform="matrix(0.5, -0.87, 0.87, 0.5, -24.81, 61.99)"/><path d="M88,77V32.4h16.64a24.63,24.63,0,0,1,9.67,1.76A19.45,19.45,0,0,1,125.5,46a26,26,0,0,1,1.41,8.64,25.64,25.64,0,0,1-1.57,9.2,19.77,19.77,0,0,1-4.49,7,20.14,20.14,0,0,1-7,4.52,25,25,0,0,1-9.14,1.6Zm28.39-22.36a17.33,17.33,0,0,0-.79-5.37,12.07,12.07,0,0,0-2.29-4.18,10,10,0,0,0-3.71-2.7,12.48,12.48,0,0,0-5-.94H98.34v26.5h6.34a12,12,0,0,0,5-1,10.16,10.16,0,0,0,3.67-2.79,12.72,12.72,0,0,0,2.26-4.21A17.11,17.11,0,0,0,116.43,54.63Z" transform="translate(0 0.4)"/><path d="M170.62,67.95v9H139.29V32.4h30.77v9H149.59v8.67h17.58v8.35H149.59v9.48Z" transform="translate(0 0.4)"/><path d="M183.18,77V32.4h10.3V77Z" transform="translate(0 0.4)"/><path d="M242.28,41.45H228.71V77h-10.3V41.45H204.79v-9h37.49Z" transform="translate(0 0.4)"/><path d="M260.49,32.4l9.61,20.47,9.73-20.47h11.24L275.18,61.79V77H264.95V61.67L249.31,32.4Z" transform="translate(0 0.4)"/><path class="cls-3" d="M94.51,101.39v1.07H88V92.94h6.35V94H89.25V97.1h4.47v1H89.25v3.29Z" transform="translate(0 0.4)"/><path class="cls-3" d="M97.22,99.34V98.26h4v1.07Z" transform="translate(0 0.4)"/><path class="cls-3" d="M103.9,97.63a5.1,5.1,0,0,1,.3-1.71,4.76,4.76,0,0,1,.89-1.53,4.46,4.46,0,0,1,1.43-1.09,4.29,4.29,0,0,1,1.92-.42,4,4,0,0,1,2.19.58A3.59,3.59,0,0,1,112,95l-1,.62a2.78,2.78,0,0,0-.52-.76,2.67,2.67,0,0,0-.66-.5,2.83,2.83,0,0,0-.73-.27,3.52,3.52,0,0,0-.74-.08,2.91,2.91,0,0,0-1.4.33,3.24,3.24,0,0,0-1,.86,3.71,3.71,0,0,0-.62,1.19,4.44,4.44,0,0,0-.21,1.34,4.12,4.12,0,0,0,.25,1.43,3.94,3.94,0,0,0,.69,1.2,3.36,3.36,0,0,0,1,.83,2.84,2.84,0,0,0,1.32.31,3.34,3.34,0,0,0,.77-.09,2.83,2.83,0,0,0,.76-.3,3.24,3.24,0,0,0,.68-.52,2.56,2.56,0,0,0,.52-.76l1,.55a3,3,0,0,1-.64.95,4,4,0,0,1-.93.69,4.71,4.71,0,0,1-1.09.43,4.54,4.54,0,0,1-1.13.15,3.81,3.81,0,0,1-1.8-.43,4.79,4.79,0,0,1-1.42-1.12,5.21,5.21,0,0,1-1.25-3.36Z" transform="translate(0 0.4)"/><path class="cls-3" d="M118.77,102.53a4.06,4.06,0,0,1-1.83-.41,4.52,4.52,0,0,1-1.42-1.09,4.94,4.94,0,0,1-.91-1.55,5.12,5.12,0,0,1-.32-1.78,5,5,0,0,1,.34-1.83,5,5,0,0,1,.95-1.54A4.55,4.55,0,0,1,117,93.26a4.09,4.09,0,0,1,1.79-.4,3.92,3.92,0,0,1,1.83.42A4.68,4.68,0,0,1,122,94.4a5.14,5.14,0,0,1,1.23,3.31,5,5,0,0,1-.34,1.83,5,5,0,0,1-.94,1.54,4.52,4.52,0,0,1-1.42,1.06A4.09,4.09,0,0,1,118.77,102.53Zm-3.26-4.83a4.25,4.25,0,0,0,.23,1.4,3.87,3.87,0,0,0,.66,1.2,3.22,3.22,0,0,0,1,.83,2.9,2.9,0,0,0,1.34.31,2.81,2.81,0,0,0,1.37-.33,3.34,3.34,0,0,0,1-.86,3.83,3.83,0,0,0,.64-1.2A4.3,4.3,0,0,0,122,97.7a4.25,4.25,0,0,0-.23-1.4,3.73,3.73,0,0,0-.67-1.19,3.36,3.36,0,0,0-1-.83,3,3,0,0,0-2.69,0,3.3,3.3,0,0,0-1,.85,3.86,3.86,0,0,0-.65,1.19A4.22,4.22,0,0,0,115.51,97.7Z" transform="translate(0 0.4)"/><path class="cls-3" d="M134.53,102.46V95.1l-3.17,5.65h-.68L127.5,95.1v7.37h-1.21V92.94h1.27L131,99.12l3.46-6.19h1.26v9.53Z" transform="translate(0 0.4)"/><path class="cls-3" d="M147.6,102.46V95.1l-3.17,5.65h-.68l-3.18-5.65v7.37h-1.21V92.94h1.27l3.45,6.19,3.46-6.19h1.26v9.53Z" transform="translate(0 0.4)"/><path class="cls-3" d="M158.9,101.39v1.07h-6.47V92.94h6.35V94h-5.14V97.1h4.47v1h-4.47v3.29Z" transform="translate(0 0.4)"/><path class="cls-3" d="M161.89,102.46V92.94H166a2.59,2.59,0,0,1,1.16.26,2.92,2.92,0,0,1,.91.7,3.33,3.33,0,0,1,.6,1,3,3,0,0,1,.21,1.11,3.28,3.28,0,0,1-.14,1,3,3,0,0,1-.4.84,2.69,2.69,0,0,1-.63.64,2.46,2.46,0,0,1-.83.39l2.31,3.65h-1.37L165.62,99H163.1v3.42ZM163.1,98H166a1.42,1.42,0,0,0,.68-.16,1.61,1.61,0,0,0,.52-.44,2.11,2.11,0,0,0,.34-.64,2.36,2.36,0,0,0,.12-.75,2,2,0,0,0-.14-.76,2.23,2.23,0,0,0-.38-.63,1.71,1.71,0,0,0-.55-.43,1.49,1.49,0,0,0-.66-.15h-2.8Z" transform="translate(0 0.4)"/><path class="cls-3" d="M171.43,97.63a5.09,5.09,0,0,1,.3-1.71,4.76,4.76,0,0,1,.89-1.53A4.46,4.46,0,0,1,174,93.3a4.29,4.29,0,0,1,1.92-.42,4,4,0,0,1,2.19.58,3.59,3.59,0,0,1,1.36,1.5l-1,.62a2.77,2.77,0,0,0-.52-.76,2.66,2.66,0,0,0-.66-.5,2.83,2.83,0,0,0-.73-.27,3.52,3.52,0,0,0-.74-.08,2.91,2.91,0,0,0-1.4.33,3.24,3.24,0,0,0-1,.86,3.71,3.71,0,0,0-.62,1.19,4.45,4.45,0,0,0-.21,1.34,4.12,4.12,0,0,0,.25,1.43,3.94,3.94,0,0,0,.69,1.2,3.36,3.36,0,0,0,1,.83,2.85,2.85,0,0,0,1.32.31,3.34,3.34,0,0,0,.77-.09,2.82,2.82,0,0,0,.76-.3,3.23,3.23,0,0,0,.68-.52,2.56,2.56,0,0,0,.52-.76l1,.55a3,3,0,0,1-.64.95,4,4,0,0,1-.93.69,4.72,4.72,0,0,1-1.09.43,4.54,4.54,0,0,1-1.13.15,3.81,3.81,0,0,1-1.8-.43,4.79,4.79,0,0,1-1.42-1.12,5.21,5.21,0,0,1-1.25-3.36Z" transform="translate(0 0.4)"/><path class="cls-3" d="M189,101.39v1.07h-6.47V92.94h6.35V94h-5.14V97.1h4.47v1h-4.47v3.29Z" transform="translate(0 0.4)"/><path class="cls-3" d="M196.74,102.46V92.94h4.08a2.59,2.59,0,0,1,1.16.26,2.92,2.92,0,0,1,.91.7,3.34,3.34,0,0,1,.6,1A3,3,0,0,1,203.7,96a3.28,3.28,0,0,1-.14,1,3,3,0,0,1-.4.84,2.69,2.69,0,0,1-.63.64,2.46,2.46,0,0,1-.83.39l2.31,3.65h-1.37L200.47,99h-2.52v3.42Zm1.21-4.5h2.89a1.42,1.42,0,0,0,.68-.16,1.61,1.61,0,0,0,.52-.44,2.11,2.11,0,0,0,.34-.64,2.36,2.36,0,0,0,.12-.75,2,2,0,0,0-.14-.76,2.23,2.23,0,0,0-.38-.63,1.7,1.7,0,0,0-.55-.43,1.49,1.49,0,0,0-.66-.15h-2.8Z" transform="translate(0 0.4)"/><path class="cls-3" d="M213.36,101.39v1.07H206.9V92.94h6.35V94H208.1V97.1h4.47v1H208.1v3.29Z" transform="translate(0 0.4)"/><path class="cls-3" d="M216.63,92.94l3.15,8,3.14-8h1.27l-3.89,9.53h-1l-3.9-9.53Z" transform="translate(0 0.4)"/><path class="cls-3" d="M230.33,102.53a4.06,4.06,0,0,1-1.83-.41,4.52,4.52,0,0,1-1.42-1.09,4.94,4.94,0,0,1-.91-1.55,5.11,5.11,0,0,1-.32-1.78,5,5,0,0,1,.34-1.83,5,5,0,0,1,.95-1.54,4.55,4.55,0,0,1,1.43-1.07,4.09,4.09,0,0,1,1.79-.4,3.92,3.92,0,0,1,1.83.42,4.68,4.68,0,0,1,1.41,1.11,5.14,5.14,0,0,1,1.23,3.31,5,5,0,0,1-.34,1.83,5,5,0,0,1-.94,1.54,4.52,4.52,0,0,1-1.42,1.06A4.09,4.09,0,0,1,230.33,102.53Zm-3.26-4.83a4.25,4.25,0,0,0,.23,1.4,3.88,3.88,0,0,0,.66,1.2,3.21,3.21,0,0,0,1,.83,2.9,2.9,0,0,0,1.34.31,2.81,2.81,0,0,0,1.37-.33,3.34,3.34,0,0,0,1-.86,3.83,3.83,0,0,0,.64-1.2,4.28,4.28,0,0,0,0-2.76,3.73,3.73,0,0,0-.67-1.19,3.36,3.36,0,0,0-1-.83,3,3,0,0,0-2.69,0,3.3,3.3,0,0,0-1,.85,3.86,3.86,0,0,0-.65,1.19A4.22,4.22,0,0,0,227.07,97.7Z" transform="translate(0 0.4)"/><path class="cls-3" d="M237.84,102.46V92.94H239v8.45h5.31v1.07Z" transform="translate(0 0.4)"/><path class="cls-3" d="M250.6,101.44a2.7,2.7,0,0,0,1.38-.32,2.55,2.55,0,0,0,.88-.84,3.45,3.45,0,0,0,.46-1.18,6.8,6.8,0,0,0,.13-1.35V92.94h1.21v4.82a7.37,7.37,0,0,1-.22,1.83,4.37,4.37,0,0,1-.7,1.52,3.4,3.4,0,0,1-1.25,1,4.77,4.77,0,0,1-3.79,0,3.48,3.48,0,0,1-1.25-1.07,4.33,4.33,0,0,1-.68-1.53,7.58,7.58,0,0,1-.21-1.78V92.94h1.21v4.82a6.6,6.6,0,0,0,.14,1.38,3.48,3.48,0,0,0,.47,1.17,2.53,2.53,0,0,0,.87.83A2.68,2.68,0,0,0,250.6,101.44Z" transform="translate(0 0.4)"/><path class="cls-3" d="M265,94h-3.29v8.45h-1.21V94h-3.29V92.94H265Z" transform="translate(0 0.4)"/><path class="cls-3" d="M267.74,102.46V92.94h1.21v9.53Z" transform="translate(0 0.4)"/><path class="cls-3" d="M276.43,102.53a4.06,4.06,0,0,1-1.83-.41,4.52,4.52,0,0,1-1.42-1.09,4.94,4.94,0,0,1-.91-1.55A5.11,5.11,0,0,1,272,97.7a5,5,0,0,1,.34-1.83,5,5,0,0,1,.95-1.54,4.55,4.55,0,0,1,1.43-1.07,4.09,4.09,0,0,1,1.79-.4,3.92,3.92,0,0,1,1.83.42,4.68,4.68,0,0,1,1.41,1.11,5.14,5.14,0,0,1,1.23,3.31,5,5,0,0,1-.34,1.83,5,5,0,0,1-.94,1.54,4.52,4.52,0,0,1-1.42,1.06A4.09,4.09,0,0,1,276.43,102.53Zm-3.26-4.83a4.25,4.25,0,0,0,.23,1.4,3.88,3.88,0,0,0,.66,1.2,3.21,3.21,0,0,0,1,.83,2.9,2.9,0,0,0,1.34.31,2.81,2.81,0,0,0,1.37-.33,3.34,3.34,0,0,0,1-.86,3.83,3.83,0,0,0,.64-1.2,4.28,4.28,0,0,0,0-2.76,3.73,3.73,0,0,0-.67-1.19,3.36,3.36,0,0,0-1-.83,3,3,0,0,0-2.69,0,3.3,3.3,0,0,0-1,.85,3.86,3.86,0,0,0-.65,1.19A4.22,4.22,0,0,0,273.17,97.7Z" transform="translate(0 0.4)"/><path class="cls-3" d="M285.16,95.19v7.27h-1.21V92.94h.94l5.9,7.42V92.95H292v9.51h-1Z" transform="translate(0 0.4)"/></svg>